<svg xmlns="http://www.w3.org/2000/svg" width="101.258" height="93.255" viewBox="0 0 101.258 93.255"><defs><style>.a{fill:#50ffd6;}.b{fill:#c8f1e8;}.c{fill:#fff;}.d{fill:#fff6d8;}</style></defs><g transform="matrix(-0.809, 0.588, -0.588, -0.809, 162.51, 126.005)"><path class="a" d="M89.9,111.71H10.247A2.734,2.734,0,0,0,7.5,114.432v11.981a1.984,1.984,0,0,0,.929,1.7,9.462,9.462,0,0,1,0,16.192A1.984,1.984,0,0,0,7.5,146v11.981a2.734,2.734,0,0,0,2.747,2.722H89.9a2.734,2.734,0,0,0,2.747-2.722V114.432A2.734,2.734,0,0,0,89.9,111.71Z" transform="translate(-6.215 -6.227)"/><path class="b" d="M200.079,176.588H145.147a1.367,1.367,0,0,1-1.373-1.361V137.12a1.367,1.367,0,0,1,1.373-1.361h54.932a1.367,1.367,0,0,1,1.373,1.361v38.107A1.367,1.367,0,0,1,200.079,176.588Z" transform="translate(-119.143 -26.193)"/><path class="c" d="M231.262,192.2l-7.118,4.429a2.051,2.051,0,0,1-3.085-2.222l2.051-8.078-6.45-5.34a2.033,2.033,0,0,1,1.178-3.595l8.385-.564,3.132-7.729a2.062,2.062,0,0,1,3.814,0l3.132,7.729,8.385.564a2.033,2.033,0,0,1,1.178,3.595l-6.45,5.34,2.05,8.078a2.051,2.051,0,0,1-3.085,2.222Z" transform="translate(-178.929 -52.813)"/><path class="d" d="M240.572,236.752a23.321,23.321,0,0,1-19.891-13.685l-2.844.191a2.033,2.033,0,0,0-1.178,3.595l6.45,5.34-2.05,8.078a2.051,2.051,0,0,0,3.085,2.222l7.118-4.429,7.118,4.429a2.051,2.051,0,0,0,3.085-2.222Z" transform="translate(-178.928 -98.678)"/><path d="M83.682,104.209H4.031A4.018,4.018,0,0,0,0,108.2v11.981a3.274,3.274,0,0,0,1.538,2.782,8.183,8.183,0,0,1,3.955,7.013,8.183,8.183,0,0,1-3.955,7.013A3.274,3.274,0,0,0,0,139.775v11.981a4.018,4.018,0,0,0,4.031,4H83.682a4.018,4.018,0,0,0,4.031-4V108.2A4.018,4.018,0,0,0,83.682,104.209Zm1.462,47.547a1.457,1.457,0,0,1-1.462,1.449H20.423v-.088a1.285,1.285,0,0,0-2.57,0v.088H4.031a1.457,1.457,0,0,1-1.462-1.449V139.775a.717.717,0,0,1,.32-.616,10.709,10.709,0,0,0,5.173-9.179A10.709,10.709,0,0,0,2.89,120.8a.718.718,0,0,1-.32-.616V108.2a1.457,1.457,0,0,1,1.462-1.449H17.853v.088a1.285,1.285,0,0,0,2.57,0v-.088h63.26a1.457,1.457,0,0,1,1.462,1.449Z" transform="translate(0 0)"/><path d="M105.495,240.484a1.279,1.279,0,0,0-1.285,1.273v2.722a1.285,1.285,0,0,0,2.57,0v-2.722A1.279,1.279,0,0,0,105.495,240.484Z" transform="translate(-86.357 -113.138)"/><path d="M105.495,144.292a1.279,1.279,0,0,0-1.285,1.273v2.722a1.285,1.285,0,0,0,2.57,0v-2.722A1.279,1.279,0,0,0,105.495,144.292Z" transform="translate(-86.357 -33.278)"/><path d="M105.495,192.387a1.279,1.279,0,0,0-1.285,1.273v2.722a1.285,1.285,0,0,0,2.57,0V193.66A1.279,1.279,0,0,0,105.495,192.387Z" transform="translate(-86.357 -73.207)"/><path d="M105.495,288.581a1.279,1.279,0,0,0-1.285,1.273v2.722a1.285,1.285,0,0,0,2.57,0v-2.722A1.279,1.279,0,0,0,105.495,288.581Z" transform="translate(-86.357 -153.069)"/><path d="M105.495,336.677a1.279,1.279,0,0,0-1.285,1.273v2.722a1.285,1.285,0,0,0,2.57,0V337.95A1.279,1.279,0,0,0,105.495,336.677Z" transform="translate(-86.357 -193)"/><path d="M238.564,169.9l-7.581-.509-2.831-6.987a3.351,3.351,0,0,0-6.2,0l-2.831,6.987-7.581.509a3.319,3.319,0,0,0-2.95,2.279,3.276,3.276,0,0,0,1.035,3.563l5.831,4.828-1.854,7.3a3.279,3.279,0,0,0,1.276,3.485,3.35,3.35,0,0,0,3.739.125l6.435-4,6.435,4a3.349,3.349,0,0,0,3.739-.125,3.279,3.279,0,0,0,1.276-3.485l-1.854-7.3,5.831-4.828a3.276,3.276,0,0,0,1.035-3.563A3.319,3.319,0,0,0,238.564,169.9Zm.268,3.888-6.45,5.341a1.267,1.267,0,0,0-.422,1.288l2.05,8.078a.734.734,0,0,1-.294.8.749.749,0,0,1-.862.029l-7.118-4.429a1.3,1.3,0,0,0-1.366,0l-7.118,4.429a.748.748,0,0,1-.862-.029.733.733,0,0,1-.294-.8l2.051-8.078a1.266,1.266,0,0,0-.422-1.288l-6.45-5.341a.733.733,0,0,1-.239-.822.741.741,0,0,1,.68-.525l8.385-.563a1.284,1.284,0,0,0,1.105-.8l3.132-7.729a.773.773,0,0,1,1.429,0l3.132,7.729a1.284,1.284,0,0,0,1.105.8l8.385.563a.742.742,0,0,1,.68.526A.731.731,0,0,1,238.831,173.785Z" transform="translate(-172.719 -46.588)"/></g></svg>