<svg xmlns="http://www.w3.org/2000/svg" width="147.683" height="125.204" viewBox="0 0 147.683 125.204"><defs><style>.a{fill:#ff9f32;}.b{fill:#fbca92;}.c{fill:#fff;}.d{fill:#fff6d8;}</style></defs><g transform="matrix(-0.891, 0.454, -0.454, -0.891, 194.993, 160.324)"><path class="a" d="M126.957,111.71H11.482a3.991,3.991,0,0,0-3.982,4v17.6a2.925,2.925,0,0,0,1.347,2.5,14,14,0,0,1,0,23.789,2.925,2.925,0,0,0-1.347,2.5v17.6a3.991,3.991,0,0,0,3.982,4H126.956a3.991,3.991,0,0,0,3.982-4V115.709A3.99,3.99,0,0,0,126.957,111.71Z" transform="translate(-5.637 -5.63)"/><path class="b" d="M225.4,195.746H145.765a2,2,0,0,1-1.991-2V137.759a2,2,0,0,1,1.991-2H225.4a2,2,0,0,1,1.991,2v55.988A2,2,0,0,1,225.4,195.746Z" transform="translate(-108.065 -23.68)"/><path class="c" d="M238.163,203.636l-10.32,6.507a2.982,2.982,0,0,1-4.473-3.264l2.973-11.868-9.351-7.846a3,3,0,0,1,1.708-5.281l12.157-.828L235.4,169.7a2.974,2.974,0,0,1,5.529,0l4.541,11.356,12.157.828a3,3,0,0,1,1.709,5.281l-9.35,7.846,2.973,11.868a2.982,2.982,0,0,1-4.473,3.264Z" transform="translate(-162.292 -47.745)"/><path class="d" d="M251.661,243.174a33.823,33.823,0,0,1-28.837-20.107l-4.123.281a3,3,0,0,0-1.708,5.281l9.351,7.846-2.973,11.868a2.982,2.982,0,0,0,4.473,3.264l10.32-6.507,10.319,6.507a2.982,2.982,0,0,0,4.473-3.264Z" transform="translate(-162.292 -89.21)"/><path d="M121.319,104.209H5.845A5.864,5.864,0,0,0,0,110.079v17.6a4.826,4.826,0,0,0,2.23,4.087,12.058,12.058,0,0,1,5.734,10.3,12.058,12.058,0,0,1-5.734,10.3A4.826,4.826,0,0,0,0,156.463v17.6a5.864,5.864,0,0,0,5.845,5.87H121.319a5.864,5.864,0,0,0,5.845-5.87V110.079A5.864,5.864,0,0,0,121.319,104.209Zm2.119,69.857a2.126,2.126,0,0,1-2.119,2.128H29.608v-.129a1.863,1.863,0,1,0-3.726,0v.129H5.845a2.126,2.126,0,0,1-2.119-2.128v-17.6a1.058,1.058,0,0,1,.464-.905,15.78,15.78,0,0,0,7.5-13.485,15.78,15.78,0,0,0-7.5-13.485,1.058,1.058,0,0,1-.464-.905v-17.6a2.126,2.126,0,0,1,2.119-2.128H25.882v.129a1.863,1.863,0,1,0,3.726,0v-.129h91.712a2.126,2.126,0,0,1,2.119,2.128Z" transform="translate(0)"/><path d="M106.073,240.484a1.867,1.867,0,0,0-1.863,1.871v4a1.863,1.863,0,1,0,3.725,0v-4A1.867,1.867,0,0,0,106.073,240.484Z" transform="translate(-78.328 -102.282)"/><path d="M106.073,144.292a1.867,1.867,0,0,0-1.863,1.871v4a1.863,1.863,0,1,0,3.725,0v-4A1.866,1.866,0,0,0,106.073,144.292Z" transform="translate(-78.328 -30.085)"/><path d="M106.073,192.387a1.867,1.867,0,0,0-1.863,1.871v4a1.863,1.863,0,1,0,3.725,0v-4A1.867,1.867,0,0,0,106.073,192.387Z" transform="translate(-78.328 -66.182)"/><path d="M106.073,288.581a1.867,1.867,0,0,0-1.863,1.871v4a1.863,1.863,0,1,0,3.725,0v-4A1.867,1.867,0,0,0,106.073,288.581Z" transform="translate(-78.328 -138.381)"/><path d="M106.073,336.677a1.867,1.867,0,0,0-1.863,1.871v4a1.863,1.863,0,1,0,3.725,0v-4A1.867,1.867,0,0,0,106.073,336.677Z" transform="translate(-78.328 -174.48)"/><path d="M252.119,174.389l-10.99-.748-4.1-10.266a4.834,4.834,0,0,0-8.986,0l-4.1,10.266-10.99.748a4.867,4.867,0,0,0-2.777,8.584l8.453,7.093L215.931,200.8a4.851,4.851,0,0,0,1.85,5.12,4.8,4.8,0,0,0,5.42.184l9.329-5.882,9.329,5.882a4.847,4.847,0,0,0,7.27-5.3l-2.687-10.729,8.453-7.093a4.867,4.867,0,0,0-2.777-8.584Zm.388,5.712-9.35,7.847a1.876,1.876,0,0,0-.612,1.892l2.973,11.868a1.117,1.117,0,0,1-1.676,1.223l-10.32-6.507a1.856,1.856,0,0,0-1.981,0l-10.32,6.507a1.117,1.117,0,0,1-1.676-1.223l2.973-11.868a1.875,1.875,0,0,0-.612-1.892l-9.351-7.847a1.122,1.122,0,0,1,.64-1.979l12.157-.828a1.864,1.864,0,0,0,1.6-1.169l4.541-11.356a1.115,1.115,0,0,1,2.072,0l4.54,11.356a1.864,1.864,0,0,0,1.6,1.169l12.157.828a1.122,1.122,0,0,1,.641,1.979Z" transform="translate(-156.659 -42.117)"/></g></svg>