<svg xmlns="http://www.w3.org/2000/svg" width="86.198" height="79.241" viewBox="0 0 86.198 79.241"><defs><style>.a{opacity:0.4;}.b{fill:#50ffd6;}.c{fill:#c8f1e8;}.d{fill:#fff;}.e{fill:#fff6d8;}</style></defs><g class="a" transform="matrix(-0.809, 0.588, -0.588, -0.809, 147.45, 119.498)"><path class="b" d="M77.9,111.71H9.847a2.322,2.322,0,0,0-2.347,2.3v10.111a1.67,1.67,0,0,0,.794,1.434,7.935,7.935,0,0,1,0,13.665,1.67,1.67,0,0,0-.794,1.434v10.111a2.322,2.322,0,0,0,2.347,2.3H77.9a2.322,2.322,0,0,0,2.347-2.3V114.007A2.322,2.322,0,0,0,77.9,111.71Z" transform="translate(-6.402 -6.426)"/><path class="c" d="M191.881,170.217H144.947a1.161,1.161,0,0,1-1.173-1.149V136.908a1.161,1.161,0,0,1,1.173-1.149h46.933a1.161,1.161,0,0,1,1.173,1.149v32.161A1.161,1.161,0,0,1,191.881,170.217Z" transform="translate(-122.73 -27.029)"/><path class="d" d="M229.028,188.394l-6.082,3.738a1.747,1.747,0,0,1-2.636-1.875l1.752-6.817-5.511-4.507a1.711,1.711,0,0,1,1.007-3.034l7.164-.476L227.4,168.9a1.77,1.77,0,0,1,3.259,0l2.676,6.523,7.164.476a1.711,1.711,0,0,1,1.007,3.034l-5.511,4.507,1.752,6.817a1.747,1.747,0,0,1-2.636,1.875Z" transform="translate(-184.315 -54.498)"/><path class="e" d="M236.983,234.617a19.922,19.922,0,0,1-16.995-11.55l-2.43.161a1.711,1.711,0,0,0-1.007,3.034l5.511,4.507-1.752,6.817a1.747,1.747,0,0,0,2.636,1.875l6.082-3.738,6.082,3.738a1.747,1.747,0,0,0,2.636-1.875Z" transform="translate(-184.314 -101.827)"/><path d="M71.5,104.209H3.444A3.413,3.413,0,0,0,0,107.581v10.111a2.756,2.756,0,0,0,1.314,2.348,6.889,6.889,0,0,1,3.379,5.918,6.889,6.889,0,0,1-3.379,5.918A2.756,2.756,0,0,0,0,134.225v10.111a3.413,3.413,0,0,0,3.444,3.372H71.5a3.413,3.413,0,0,0,3.444-3.372V107.581A3.413,3.413,0,0,0,71.5,104.209Zm1.249,40.127a1.237,1.237,0,0,1-1.249,1.223H17.449v-.074a1.1,1.1,0,0,0-2.2,0v.074H3.444A1.237,1.237,0,0,1,2.2,144.336V134.225a.6.6,0,0,1,.274-.52,9.015,9.015,0,0,0,4.42-7.746,9.015,9.015,0,0,0-4.42-7.746.6.6,0,0,1-.274-.52V107.581a1.237,1.237,0,0,1,1.249-1.223H15.253v.074a1.1,1.1,0,0,0,2.2,0v-.074H71.5a1.237,1.237,0,0,1,1.249,1.223Z" transform="translate(0 0)"/><path d="M105.308,240.484a1.086,1.086,0,0,0-1.1,1.075v2.3a1.1,1.1,0,0,0,2.2,0v-2.3A1.086,1.086,0,0,0,105.308,240.484Z" transform="translate(-88.957 -116.749)"/><path d="M105.308,144.292a1.086,1.086,0,0,0-1.1,1.075v2.3a1.1,1.1,0,0,0,2.2,0v-2.3A1.086,1.086,0,0,0,105.308,144.292Z" transform="translate(-88.957 -34.34)"/><path d="M105.308,192.387a1.086,1.086,0,0,0-1.1,1.075v2.3a1.1,1.1,0,0,0,2.2,0v-2.3A1.086,1.086,0,0,0,105.308,192.387Z" transform="translate(-88.957 -75.543)"/><path d="M105.308,288.581a1.086,1.086,0,0,0-1.1,1.075v2.3a1.1,1.1,0,0,0,2.2,0v-2.3A1.086,1.086,0,0,0,105.308,288.581Z" transform="translate(-88.957 -157.954)"/><path d="M105.308,336.677a1.086,1.086,0,0,0-1.1,1.075v2.3a1.1,1.1,0,0,0,2.2,0v-2.3A1.086,1.086,0,0,0,105.308,336.677Z" transform="translate(-88.957 -199.158)"/><path d="M234.175,168.4l-6.477-.43-2.419-5.9a2.877,2.877,0,0,0-5.3,0l-2.419,5.9-6.477.43a2.831,2.831,0,0,0-2.521,1.924,2.744,2.744,0,0,0,.884,3.007l4.982,4.075-1.584,6.163a2.75,2.75,0,0,0,1.09,2.941,2.891,2.891,0,0,0,3.194.106l5.5-3.379,5.5,3.379a2.891,2.891,0,0,0,3.194-.106,2.75,2.75,0,0,0,1.09-2.941l-1.584-6.163,4.982-4.074a2.744,2.744,0,0,0,.884-3.007A2.83,2.83,0,0,0,234.175,168.4Zm.229,3.281-5.51,4.507a1.062,1.062,0,0,0-.361,1.087l1.752,6.817a.616.616,0,0,1-.251.678.646.646,0,0,1-.737.024l-6.082-3.738a1.118,1.118,0,0,0-1.167,0l-6.082,3.738a.646.646,0,0,1-.737-.024.616.616,0,0,1-.251-.678l1.752-6.817a1.061,1.061,0,0,0-.361-1.087l-5.511-4.507a.613.613,0,0,1-.2-.693.631.631,0,0,1,.581-.443l7.164-.476a1.1,1.1,0,0,0,.944-.672l2.676-6.523a.663.663,0,0,1,1.221,0l2.676,6.523a1.1,1.1,0,0,0,.944.672l7.164.476a.632.632,0,0,1,.581.444A.612.612,0,0,1,234.4,171.684Z" transform="translate(-177.918 -48.074)"/></g></svg>