<svg xmlns="http://www.w3.org/2000/svg" width="49.112" height="45.259" viewBox="0 0 49.112 45.259"><defs><style>.a{opacity:0.4;}.b{fill:#ffc350;}.c{fill:#ffd164;}.d{fill:#fff;}.e{fill:#fff6d8;}</style></defs><g class="a" transform="matrix(-0.788, 0.616, -0.616, -0.788, 113.269, 99.799)"><path class="b" d="M49.578,111.71H8.9a1.308,1.308,0,0,0-1.4,1.185v5.216a.842.842,0,0,0,.475.74,3.83,3.83,0,0,1,0,7.049.842.842,0,0,0-.475.74v5.216a1.308,1.308,0,0,0,1.4,1.185H49.578a1.308,1.308,0,0,0,1.4-1.185v-18.96A1.307,1.307,0,0,0,49.578,111.71Z" transform="translate(-6.844 -6.947)"/><path class="c" d="M172.527,153.534H144.475a.654.654,0,0,1-.7-.592v-16.59a.654.654,0,0,1,.7-.592h28.052a.654.654,0,0,1,.7.592v16.59A.654.654,0,0,1,172.527,153.534Z" transform="translate(-131.196 -29.218)"/><path class="d" d="M223.755,178.434l-3.635,1.928c-.8.425-1.806-.192-1.576-.967l1.047-3.517-3.294-2.325c-.726-.512-.342-1.511.6-1.565l4.282-.245,1.6-3.365a1.131,1.131,0,0,1,1.948,0l1.6,3.365,4.282.245c.944.054,1.328,1.052.6,1.565l-3.294,2.325,1.047,3.517c.231.775-.775,1.392-1.576.967Z" transform="translate(-197.029 -58.911)"/><path class="e" d="M228.509,229.025a12.035,12.035,0,0,1-10.158-5.958l-1.452.083c-.944.054-1.328,1.052-.6,1.565l3.294,2.325-1.047,3.517c-.231.775.775,1.392,1.576.967l3.635-1.928,3.635,1.928c.8.425,1.806-.192,1.576-.967Z" transform="translate(-197.029 -110.073)"/><path d="M42.734,104.209H2.059A1.922,1.922,0,0,0,0,105.948v5.216a1.392,1.392,0,0,0,.786,1.211,3.49,3.49,0,0,1,2.02,3.053,3.49,3.49,0,0,1-2.02,3.053A1.392,1.392,0,0,0,0,119.692v5.216a1.922,1.922,0,0,0,2.059,1.739H42.734a1.922,1.922,0,0,0,2.059-1.739v-18.96A1.922,1.922,0,0,0,42.734,104.209Zm.746,20.7a.7.7,0,0,1-.746.631h-32.3V125.5a.665.665,0,0,0-1.312,0v.038H2.059a.7.7,0,0,1-.746-.631v-5.216a.3.3,0,0,1,.164-.268,4.567,4.567,0,0,0,2.642-4,4.567,4.567,0,0,0-2.642-4,.3.3,0,0,1-.164-.268v-5.216a.7.7,0,0,1,.746-.631H9.117v.038a.665.665,0,0,0,1.312,0v-.038h32.3a.7.7,0,0,1,.746.631Z" transform="translate(0 0)"/><path d="M104.866,240.484a.612.612,0,0,0-.656.554v1.185a.665.665,0,0,0,1.312,0v-1.185A.612.612,0,0,0,104.866,240.484Z" transform="translate(-95.093 -126.203)"/><path d="M104.866,144.292a.612.612,0,0,0-.656.554v1.185a.665.665,0,0,0,1.312,0v-1.185A.612.612,0,0,0,104.866,144.292Z" transform="translate(-95.093 -37.12)"/><path d="M104.866,192.387a.612.612,0,0,0-.656.554v1.185a.665.665,0,0,0,1.312,0v-1.185A.612.612,0,0,0,104.866,192.387Z" transform="translate(-95.093 -81.661)"/><path d="M104.866,288.581a.612.612,0,0,0-.656.554v1.185a.665.665,0,0,0,1.312,0v-1.185A.612.612,0,0,0,104.866,288.581Z" transform="translate(-95.093 -170.745)"/><path d="M104.866,336.677a.612.612,0,0,0-.656.554v1.185a.665.665,0,0,0,1.312,0v-1.185A.612.612,0,0,0,104.866,336.677Z" transform="translate(-95.093 -215.286)"/><path d="M223.816,164.492l-3.871-.222-1.446-3.042a1.838,1.838,0,0,0-3.165,0l-1.446,3.042-3.871.222a1.674,1.674,0,0,0-1.507.992,1.3,1.3,0,0,0,.528,1.551l2.978,2.1-.947,3.179a1.327,1.327,0,0,0,.651,1.517,1.959,1.959,0,0,0,1.909.055l3.286-1.743,3.286,1.743a1.94,1.94,0,0,0,.907.222,1.92,1.92,0,0,0,1-.277,1.328,1.328,0,0,0,.652-1.517l-.947-3.179,2.977-2.1a1.3,1.3,0,0,0,.529-1.551A1.674,1.674,0,0,0,223.816,164.492Zm.137,1.693-3.294,2.325a.507.507,0,0,0-.216.561l1.047,3.517a.3.3,0,0,1-.15.35.436.436,0,0,1-.44.013l-3.635-1.928a.76.76,0,0,0-.7,0l-3.635,1.928a.436.436,0,0,1-.44-.013.3.3,0,0,1-.15-.35l1.047-3.517a.506.506,0,0,0-.216-.561l-3.294-2.325a.289.289,0,0,1-.122-.358.367.367,0,0,1,.347-.229l4.282-.245a.657.657,0,0,0,.564-.346l1.6-3.365a.424.424,0,0,1,.73,0l1.6,3.365a.657.657,0,0,0,.564.346l4.282.245a.368.368,0,0,1,.347.229A.289.289,0,0,1,223.953,166.184Z" transform="translate(-190.191 -51.967)"/></g></svg>