<svg xmlns="http://www.w3.org/2000/svg" width="195.017" height="183.786" viewBox="0 0 195.017 183.786"><defs><style>.a{fill:#ffc350;}.b{fill:#ffd164;}.c{fill:#fff;}.d{fill:#fff6d8;}</style></defs><g transform="matrix(-0.788, 0.616, -0.616, -0.788, 259.175, 162.771)"><path class="a" d="M164.862,111.71H12.745A5.327,5.327,0,0,0,7.5,117.115v23.791a3.98,3.98,0,0,0,1.775,3.374,19.006,19.006,0,0,1,8.716,16.076,19.006,19.006,0,0,1-8.716,16.076A3.981,3.981,0,0,0,7.5,179.807V203.6A5.327,5.327,0,0,0,12.745,209H164.862a5.327,5.327,0,0,0,5.245-5.405V117.115A5.326,5.326,0,0,0,164.862,111.71Z" transform="translate(-5.046 -4.972)"/><path class="b" d="M251.3,216.837H146.4a2.664,2.664,0,0,1-2.623-2.7V138.462a2.664,2.664,0,0,1,2.623-2.7H251.3a2.664,2.664,0,0,1,2.623,2.7v75.673A2.663,2.663,0,0,1,251.3,216.837Z" transform="translate(-96.734 -20.913)"/><path class="c" d="M245.222,216.228l-13.594,8.794a3.953,3.953,0,0,1-5.892-4.412l3.916-16.04-12.318-10.6a4.07,4.07,0,0,1,2.251-7.138l16.014-1.119,5.981-15.349a3.882,3.882,0,0,1,7.284,0l5.981,15.349,16.014,1.119a4.07,4.07,0,0,1,2.251,7.138l-12.318,10.6,3.916,16.04a3.953,3.953,0,0,1-5.892,4.412Z" transform="translate(-145.275 -42.166)"/><path class="d" d="M263,250.243a44.614,44.614,0,0,1-37.987-27.176l-5.431.379a4.07,4.07,0,0,0-2.251,7.138l12.318,10.6-3.916,16.04a3.953,3.953,0,0,0,5.892,4.412l13.594-8.794,13.594,8.794a3.953,3.953,0,0,0,5.892-4.412Z" transform="translate(-145.275 -78.785)"/><path d="M159.816,104.209H7.7A7.828,7.828,0,0,0,0,112.143v23.791a6.565,6.565,0,0,0,2.938,5.524,16.4,16.4,0,0,1,7.553,13.926,16.4,16.4,0,0,1-7.554,13.926A6.565,6.565,0,0,0,0,174.835v23.791a7.828,7.828,0,0,0,7.7,7.934H159.816a7.828,7.828,0,0,0,7.7-7.934V112.143A7.828,7.828,0,0,0,159.816,104.209Zm2.791,94.417a2.838,2.838,0,0,1-2.791,2.877H39v-.174a2.455,2.455,0,1,0-4.908,0v.174H7.7a2.838,2.838,0,0,1-2.791-2.877V174.835a1.441,1.441,0,0,1,.611-1.223A21.458,21.458,0,0,0,15.4,155.385a21.458,21.458,0,0,0-9.879-18.227,1.442,1.442,0,0,1-.611-1.224V112.143A2.838,2.838,0,0,1,7.7,109.266H34.1v.174a2.455,2.455,0,1,0,4.908,0v-.174H159.816a2.838,2.838,0,0,1,2.791,2.877Z" transform="translate(0 0)"/><path d="M106.664,240.484a2.492,2.492,0,0,0-2.454,2.529v5.405a2.455,2.455,0,1,0,4.908,0v-5.405A2.492,2.492,0,0,0,106.664,240.484Z" transform="translate(-70.115 -90.33)"/><path d="M106.664,144.292a2.492,2.492,0,0,0-2.454,2.529v5.405a2.455,2.455,0,1,0,4.908,0v-5.405A2.491,2.491,0,0,0,106.664,144.292Z" transform="translate(-70.115 -26.569)"/><path d="M106.664,192.387a2.492,2.492,0,0,0-2.454,2.529v5.405a2.455,2.455,0,1,0,4.908,0v-5.405A2.492,2.492,0,0,0,106.664,192.387Z" transform="translate(-70.115 -58.449)"/><path d="M106.664,288.581a2.492,2.492,0,0,0-2.454,2.529v5.405a2.455,2.455,0,1,0,4.908,0V291.11A2.492,2.492,0,0,0,106.664,288.581Z" transform="translate(-70.115 -122.212)"/><path d="M106.664,336.677a2.492,2.492,0,0,0-2.454,2.529v5.405a2.455,2.455,0,1,0,4.908,0v-5.405A2.492,2.492,0,0,0,106.664,336.677Z" transform="translate(-70.115 -154.092)"/><path d="M265.983,179.334l-14.478-1.011L246.1,164.447a6.31,6.31,0,0,0-11.838,0l-5.407,13.876-14.478,1.011a6.386,6.386,0,0,0-5.634,4.527,6.667,6.667,0,0,0,1.976,7.075l11.135,9.587-3.54,14.5a6.647,6.647,0,0,0,2.436,6.921,6.2,6.2,0,0,0,7.14.249l12.29-7.951,12.289,7.95a6.195,6.195,0,0,0,7.14-.249,6.647,6.647,0,0,0,2.436-6.921l-3.54-14.5,11.135-9.587a6.667,6.667,0,0,0,1.977-7.075A6.385,6.385,0,0,0,265.983,179.334Zm.511,7.72L254.177,197.66a2.575,2.575,0,0,0-.806,2.557l3.916,16.04a1.482,1.482,0,0,1-.562,1.6,1.387,1.387,0,0,1-1.646.057l-13.594-8.794a2.393,2.393,0,0,0-2.609,0l-13.595,8.794a1.385,1.385,0,0,1-1.646-.057,1.482,1.482,0,0,1-.562-1.6l3.916-16.04a2.574,2.574,0,0,0-.806-2.557l-12.318-10.605a1.493,1.493,0,0,1-.456-1.631,1.431,1.431,0,0,1,1.3-1.043l16.014-1.119a2.462,2.462,0,0,0,2.111-1.581l5.981-15.349a1.455,1.455,0,0,1,2.729,0l5.981,15.349a2.462,2.462,0,0,0,2.111,1.581l16.014,1.119a1.434,1.434,0,0,1,1.3,1.044A1.491,1.491,0,0,1,266.494,187.055Z" transform="translate(-140.233 -37.196)"/></g></svg>