<svg xmlns="http://www.w3.org/2000/svg" width="60.518" height="54.149" viewBox="0 0 60.518 54.149"><defs><style>.a{opacity:0.4;}.b{fill:#ccfef3;}.c{fill:#27f4ca;}</style></defs><g class="a" transform="translate(2.679) rotate(3)"><path class="b" d="M9.992,4l19.972,7.06L59.922,37.537,41.947,53.423,11.989,26.947,4,9.3C4,6.371,6.683,4,9.992,4Zm2,8.826a1.892,1.892,0,0,0,2-1.765,1.892,1.892,0,0,0-2-1.765,1.892,1.892,0,0,0-2,1.765A1.892,1.892,0,0,0,11.989,12.826Z" transform="translate(-3.001 -3.117)"/><path class="c" d="M14.758,5.76l4.823,4.263a1.632,1.632,0,0,0-.589,1.244,1.9,1.9,0,0,0,2,1.765,2.087,2.087,0,0,0,1.408-.521L59.934,45.687,50.947,53.63,20.989,27.153,13,9.5A4.959,4.959,0,0,1,14.758,5.76Z" transform="translate(-12.001 -3.324)"/><path d="M3,9.178C3,5.768,6.132,3,9.99,3a1.115,1.115,0,0,1,.37.063l19.972,7.06a1.028,1.028,0,0,1,.336.2L60.626,36.8a.812.812,0,0,1,0,1.248L42.652,53.93a1.094,1.094,0,0,1-1.412,0L11.282,27.453a.9.9,0,0,1-.222-.3L5.967,15.9A4.7,4.7,0,0,0,5,18.735v4.32a4.8,4.8,0,0,0,1.163,3.089l3.265,3.847a6.439,6.439,0,0,1,1.563,4.142V43.6h-2V34.133a4.8,4.8,0,0,0-1.163-3.089L4.563,27.2A6.439,6.439,0,0,1,3,23.055v-4.32a6.452,6.452,0,0,1,2.114-4.715L3.071,9.506A.8.8,0,0,1,3,9.178Zm9.839,17.155L41.946,52.058,58.508,37.42,29.4,11.695l-19.6-6.93A4.739,4.739,0,0,0,5,9.016Z" transform="translate(-3 -3)"/><path d="M52,9a2.838,2.838,0,0,1,3,2.648,3.019,3.019,0,0,1-5.992,0A2.838,2.838,0,0,1,52,9Zm0,3.53a.946.946,0,0,0,1-.883,1.006,1.006,0,0,0-2,0A.946.946,0,0,0,52,12.53Z" transform="translate(-43.008 -3.705)"/><path d="M35.8,31.248a2.838,2.838,0,0,1,3,2.648,3.019,3.019,0,0,1-5.992,0A2.838,2.838,0,0,1,35.8,31.248Zm0,3.53a.889.889,0,1,0-1-.883A.946.946,0,0,0,35.8,34.778Z" transform="translate(-10.647 -6.317)"/><path d="M24.49,31.229a2.838,2.838,0,0,1,3,2.648,2.838,2.838,0,0,1-3,2.648,2.838,2.838,0,0,1-3-2.648A2.838,2.838,0,0,1,24.49,31.229Zm0,3.53a.889.889,0,1,0-1-.883A.946.946,0,0,0,24.49,34.759Z" transform="translate(11.965 -6.315)"/><path d="M31.147,24.749h-2V41.492h2Z" transform="translate(0.658 -5.554)"/></g></svg>