<svg xmlns="http://www.w3.org/2000/svg" width="149" height="154.327" viewBox="0 0 149 154.327"><defs><style>.a{fill:#f3e5a1;}.b{fill:#ffd607;}</style></defs><path class="a" d="M19.414,4,70.793,25.287l77.069,79.825-46.242,47.895L24.552,73.181,4,19.965C4,11.148,10.9,4,19.414,4Zm5.138,26.608a5.325,5.325,0,1,0-5.138-5.322A5.232,5.232,0,0,0,24.552,30.608Z" transform="translate(-1.431 -1.339)"/><path class="b" d="M17.521,5.76,29.93,18.612a5.347,5.347,0,0,0,3.622,9.073,4.938,4.938,0,0,0,3.622-1.57l96.568,100.02-23.121,23.947L33.552,70.258,13,17.042A16.106,16.106,0,0,1,17.521,5.76Z" transform="translate(-10.431 1.584)"/><path d="M3,21.626C3.012,11.344,11.056,3.012,20.983,3a2.491,2.491,0,0,1,.953.189L73.316,24.476a2.589,2.589,0,0,1,.863.591l77.069,79.825a2.729,2.729,0,0,1,0,3.762l-46.242,47.895a2.507,2.507,0,0,1-3.633,0L24.3,76.723a2.713,2.713,0,0,1-.57-.891l-13.1-33.955A15.8,15.8,0,0,0,8.138,50.44V63.465a15.991,15.991,0,0,0,2.993,9.313l8.4,11.6a21.463,21.463,0,0,1,4.02,12.487V125.4H18.414V96.863a15.991,15.991,0,0,0-2.993-9.313l-8.4-11.6A21.463,21.463,0,0,1,3,63.465V50.44A21.086,21.086,0,0,1,8.439,36.226L3.183,22.616A2.778,2.778,0,0,1,3,21.626ZM28.312,73.347,103.19,150.9,145.8,106.772,70.919,29.214,20.508,8.322A13.1,13.1,0,0,0,8.138,21.136Z" transform="translate(-3 -3)"/><path d="M56.707,9a7.848,7.848,0,0,1,7.707,7.982,7.712,7.712,0,1,1-15.414,0A7.848,7.848,0,0,1,56.707,9Zm0,10.643a2.662,2.662,0,1,0-2.569-2.661A2.616,2.616,0,0,0,56.707,19.643Z" transform="translate(-33.586 6.965)"/><path d="M40.515,31.248a7.987,7.987,0,1,1-7.707,7.982,7.848,7.848,0,0,1,7.707-7.982Zm0,10.643a2.662,2.662,0,1,0-2.569-2.661A2.616,2.616,0,0,0,40.515,41.891Z" transform="translate(24.203 43.915)"/><path d="M29.2,31.229a7.987,7.987,0,1,1-7.707,7.982A7.848,7.848,0,0,1,29.2,31.229Zm0,10.643a2.662,2.662,0,1,0-2.569-2.661A2.616,2.616,0,0,0,29.2,41.872Z" transform="translate(64.582 43.883)"/><path d="M34.288,24.749H29.15V75.227h5.138Z" transform="translate(47.534 33.121)"/></svg>