<svg xmlns="http://www.w3.org/2000/svg" width="114.623" height="116.617" viewBox="0 0 114.623 116.617"><defs><style>.a{fill:#f5c793;}.b{fill:#ff9f32;}</style></defs><g transform="matrix(-0.07, 0.998, -0.998, -0.07, 114.623, 7.481)"><path class="a" d="M15.318,4,53.043,18.794,109.63,74.269,75.678,107.555,19.09,52.079,4,15.1A11.208,11.208,0,0,1,15.318,4ZM19.09,22.492a3.7,3.7,0,1,0-3.773-3.7A3.736,3.736,0,0,0,19.09,22.492Z" transform="translate(-2.114 -2.151)"/><path class="b" d="M16.32,5.76l9.111,8.932A3.58,3.58,0,0,0,24.318,17.3a3.777,3.777,0,0,0,6.432,2.607l70.9,69.511L84.678,106.06,28.09,50.584,13,13.6A10.884,10.884,0,0,1,16.32,5.76Z" transform="translate(-11.114 -0.656)"/><path d="M3,15.944A13.091,13.091,0,0,1,16.2,3a1.919,1.919,0,0,1,.7.131L54.629,17.925a1.909,1.909,0,0,1,.634.411L111.85,73.811a1.824,1.824,0,0,1,0,2.615L77.9,109.711a1.913,1.913,0,0,1-2.667,0L18.643,54.236a1.876,1.876,0,0,1-.419-.619L8.6,30.019a10.554,10.554,0,0,0-1.832,5.951v9.052a10.715,10.715,0,0,0,2.2,6.472l6.168,8.061a14.382,14.382,0,0,1,2.952,8.678V88.063H14.318V68.232a10.715,10.715,0,0,0-2.2-6.472L5.952,53.7A14.382,14.382,0,0,1,3,45.021V35.969a14.22,14.22,0,0,1,3.993-9.878L3.134,16.632A1.839,1.839,0,0,1,3,15.944ZM21.586,51.889l54.979,53.9L107.85,75.118l-54.981-53.9L15.855,6.7A9.355,9.355,0,0,0,6.773,15.6Z" transform="translate(-3 -3)"/><path d="M54.659,9A5.549,5.549,0,1,1,49,14.548,5.6,5.6,0,0,1,54.659,9Zm0,7.4a1.85,1.85,0,1,0-1.886-1.849A1.868,1.868,0,0,0,54.659,16.4Z" transform="translate(-37.682 2.095)"/><path d="M38.467,31.248A5.549,5.549,0,1,1,32.808,36.8,5.6,5.6,0,0,1,38.467,31.248Zm0,7.4A1.85,1.85,0,1,0,36.581,36.8,1.868,1.868,0,0,0,38.467,38.645Z" transform="translate(9.052 20.988)"/><path d="M27.153,31.229a5.549,5.549,0,1,1-5.659,5.548A5.6,5.6,0,0,1,27.153,31.229Zm0,7.4a1.85,1.85,0,1,0-1.886-1.849A1.868,1.868,0,0,0,27.153,38.626Z" transform="translate(41.707 20.972)"/><path d="M32.923,24.749H29.15V59.83h3.773Z" transform="translate(27.155 15.469)"/></g></svg>