<svg xmlns="http://www.w3.org/2000/svg" width="79.953" height="73.649" viewBox="0 0 79.953 73.649"><defs><style>.a{fill:#ccfef3;}.b{fill:#27f4ca;}</style></defs><g transform="translate(3.65) rotate(3)"><path class="a" d="M11.9,4l26.347,9.62L77.773,49.7,54.06,71.341,14.539,35.266,4,11.215C4,7.23,7.539,4,11.9,4Zm2.635,12.025a2.528,2.528,0,0,0,2.635-2.405,2.528,2.528,0,0,0-2.635-2.405A2.528,2.528,0,0,0,11.9,13.62,2.528,2.528,0,0,0,14.539,16.025Z" transform="translate(-2.683 -2.797)"/><path class="b" d="M15.319,5.76l6.363,5.808a2.254,2.254,0,0,0-.777,1.7,2.535,2.535,0,0,0,2.635,2.405,2.7,2.7,0,0,0,1.857-.709l49.52,45.2L63.06,70.985,23.539,34.909,13,10.859A6.849,6.849,0,0,1,15.319,5.76Z" transform="translate(-11.683 -2.441)"/><path d="M3,11.418C3.006,6.771,7.131,3.005,12.222,3a1.428,1.428,0,0,1,.489.085l26.347,9.62a1.347,1.347,0,0,1,.443.267L79.022,49.048a1.13,1.13,0,0,1,0,1.7L55.309,72.394a1.408,1.408,0,0,1-1.863,0L13.925,36.318a1.22,1.22,0,0,1-.292-.4L6.914,20.57a6.535,6.535,0,0,0-1.279,3.87v5.886A6.663,6.663,0,0,0,7.17,34.535l4.308,5.242a8.944,8.944,0,0,1,2.062,5.643v12.9H10.9V45.42A6.663,6.663,0,0,0,9.37,41.211L5.062,35.97A8.944,8.944,0,0,1,3,30.326V24.44a8.923,8.923,0,0,1,2.789-6.424l-2.7-6.151A1.124,1.124,0,0,1,3,11.418ZM15.98,34.792l38.4,35.051L76.228,49.9l-38.4-35.051L11.978,5.405A6.33,6.33,0,0,0,5.635,11.2Z" transform="translate(-3 -3)"/><path d="M52.952,9A3.792,3.792,0,0,1,56.9,12.608a3.969,3.969,0,0,1-7.9,0A3.792,3.792,0,0,1,52.952,9Zm0,4.81a1.208,1.208,0,1,0-1.317-1.2A1.264,1.264,0,0,0,52.952,13.81Z" transform="translate(-41.096 -1.785)"/><path d="M36.76,31.248a3.792,3.792,0,0,1,3.952,3.608,3.969,3.969,0,0,1-7.9,0A3.792,3.792,0,0,1,36.76,31.248Zm0,4.81a1.208,1.208,0,1,0-1.317-1.2A1.264,1.264,0,0,0,36.76,36.058Z" transform="translate(-3.573 2.721)"/><path d="M25.446,31.229A3.792,3.792,0,0,1,29.4,34.837a3.792,3.792,0,0,1-3.952,3.608,3.792,3.792,0,0,1-3.952-3.608A3.792,3.792,0,0,1,25.446,31.229Zm0,4.81a1.208,1.208,0,1,0-1.317-1.2A1.264,1.264,0,0,0,25.446,36.039Z" transform="translate(22.646 2.717)"/><path d="M31.785,24.749H29.15V47.562h2.635Z" transform="translate(10.174 1.405)"/></g></svg>