<svg xmlns="http://www.w3.org/2000/svg" width="39.954" height="28.343" viewBox="0 0 39.954 28.343"><defs><style>.a{fill:#f8e883;}.b{fill:#655e67;}.c{fill:#a29aa5;}.d{fill:#b1abb4;}.e{fill:#e8e8e8;}.f{fill:#8c818f;}.g{fill:#766d78;}.h{fill:#f5de46;}.i{fill:#f3d332;}.j{fill:#c8c3ca;}</style></defs><g transform="translate(28.588 4.712)"><g transform="translate(0 0)"><path class="a" d="M364.835,134.479l3.929,1.778a3.065,3.065,0,0,1-.642,5.791l-.7.144-2.4-3.517Z" transform="translate(-364.835 -134.479)"/></g></g><g transform="translate(28.328 3.181)"><g transform="translate(0 0)"><path class="b" d="M361.527,115.794l1.785-.746a.886.886,0,0,1,1.224.749l.114,1.438-1.561,3.214Z" transform="translate(-361.527 -114.979)"/></g></g><g transform="translate(2.883 14.977)"><g transform="translate(0 0)"><ellipse class="b" cx="6.123" cy="6.136" rx="6.123" ry="6.136"/></g></g><g transform="translate(5.004 17.047)"><g transform="translate(0 0)"><path class="c" d="M3.492-.024A3.509,3.509,0,1,1-.025,3.486,3.51,3.51,0,0,1,3.492-.024Z" transform="matrix(0.16, -0.987, 0.987, 0.16, 0, 6.95)"/></g></g><g transform="translate(13.238 10.932)"><path class="d" d="M168.949,215.954l.653.96a13.639,13.639,0,0,0,5.742,4.8l5.424-6.476-3.607-1.547Z" transform="translate(-168.949 -213.69)"/></g><g transform="translate(9.172 11.684)"><path class="e" d="M117.053,231.374l2.773-8.112,1.934.788-2.773,8.112Z" transform="translate(-117.053 -223.262)"/></g><g transform="translate(26.9 15.291)"><g transform="translate(0 0)"><ellipse class="b" cx="6.123" cy="6.136" rx="6.123" ry="6.136"/></g></g><g transform="translate(28.842 17.17)"><g transform="translate(0 0)"><path class="c" d="M3.482-.034A3.51,3.51,0,1,1-.036,3.477,3.509,3.509,0,0,1,3.482-.034Z" transform="translate(0 6.86) rotate(-76.7)"/></g></g><g transform="translate(2.526 6.4)"><g transform="translate(0 0)"><path class="f" d="M41.23,161.1H37.343a5.117,5.117,0,0,1-5.112-5.123h6.261a2.741,2.741,0,0,1,2.738,2.744Z" transform="translate(-32.231 -155.979)"/></g></g><g transform="translate(6.436 6.4)"><g transform="translate(0 0)"><path class="g" d="M84.485,155.978H82.134a2.741,2.741,0,0,1,2.738,2.744V161.1h2.351v-2.379A2.741,2.741,0,0,0,84.485,155.978Z" transform="translate(-82.134 -155.978)"/></g></g><g transform="translate(14.236 11.523)"><path class="f" d="M194.487,223.485l-2.433,4.973a6.749,6.749,0,0,1-6.061,3.786l-4.311-.785v-2.814l8.591-7.432Z" transform="translate(-181.682 -221.212)"/></g><g transform="translate(17.66 11.523)"><path class="g" d="M230.549,221.214l-.9.781,2.766,1.492-2.433,4.973a6.753,6.753,0,0,1-4.6,3.625l.887.161a6.749,6.749,0,0,0,6.061-3.786l2.433-4.973Z" transform="translate(-225.382 -221.214)"/></g><g transform="translate(11.525 10.635)"><path class="b" d="M155.186,212.469H149.27a2.194,2.194,0,0,1-2.192-2.2v-.365h5.553A2.559,2.559,0,0,1,155.186,212.469Z" transform="translate(-147.078 -209.908)"/></g><g transform="translate(18.464 7.598)"><path class="h" d="M236.953,177.108l-1.312-2.767,1.7-1.69a4.894,4.894,0,0,1,4.928-1.191l2.135.661a3.357,3.357,0,0,1,2.361,3.239l-.023,2.539Z" transform="translate(-235.641 -171.231)"/></g><g transform="translate(22.052 7.598)"><path class="i" d="M286.6,172.126l-2.135-.661a4.889,4.889,0,0,0-3.044.028l2.045.633a3.357,3.357,0,0,1,2.361,3.239l-.021,2.286,3.132.253.023-2.539A3.357,3.357,0,0,0,286.6,172.126Z" transform="translate(-281.425 -171.235)"/></g><g transform="translate(24.028 1.884)"><path class="j" d="M314.752,118.32l-5.581-16.635L306.647,99.9l1.029-1.443,3.271,2.113,5.741,17.114Z" transform="translate(-306.647 -98.459)"/></g><g transform="translate(7.533 18.233)"><g transform="translate(0 0)"><path class="j" d="M104.329,310.793l-7.82.354-.373-2.555,7.593-1.908a2.076,2.076,0,0,1,.6,4.109Z" transform="translate(-96.135 -306.661)"/></g></g><g transform="translate(22.35 0.589)"><g transform="translate(0 0)"><ellipse class="j" cx="1.679" cy="1.682" rx="1.679" ry="1.682"/></g></g><path d="M39.366,101.638H36.519a6.726,6.726,0,0,0-3.5-12.463c-.159,0-.318.008-.477.019l-.62-1.849.067-.014a3.632,3.632,0,0,0,2.886-3.993,3.669,3.669,0,0,0-2.12-2.912l-.747-.338a.589.589,0,0,0,.026-.225l-.114-1.438a1.473,1.473,0,0,0-2.036-1.246l-1.5.627-2.113-1.365a2.268,2.268,0,1,0-1.656,2.5l1.439,1.016.76,2.264-1.543-.478a5.466,5.466,0,0,0-5.518,1.333L18.116,84.7a3.123,3.123,0,0,0-1.039-.178H12.112v-.9a3.333,3.333,0,0,0-3.326-3.333H7.1a.589.589,0,0,0,0,1.178H8.787a2.155,2.155,0,0,1,2.15,2.155v1.79h-3.3a4.534,4.534,0,0,1-4.486-3.945h1.6a.589.589,0,0,0,0-1.178H2.525a.588.588,0,0,0-.588.589,5.7,5.7,0,0,0,1.847,4.205,8.467,8.467,0,0,0-3.1,5.448.588.588,0,1,0,1.164.161,7.28,7.28,0,0,1,2.923-4.88,5.653,5.653,0,0,0,2.866.778h3.531l.011.024a.591.591,0,0,0-.045.1L10.352,89a6.725,6.725,0,0,0-4.27,12.641H.588a.589.589,0,0,0,0,1.178H39.366a.589.589,0,0,0,0-1.178ZM33.023,90.353a5.54,5.54,0,1,1-3.147.984l.484,1.444a4.094,4.094,0,1,0,3.171-.955.579.579,0,0,0-.1,0l-.492-1.468Zm1.6,5.042-.772-2.3a2.925,2.925,0,1,1-3.076.934l.8,2.378a.586.586,0,0,0,.74.372l1.936-.635a.589.589,0,0,0,.374-.747Zm-.916-11.923a2.461,2.461,0,0,1-1.955,2.705l-.207.043-1.031-3.073a.587.587,0,0,0,.061-.1l.923-1.9.772.35a2.485,2.485,0,0,1,1.436,1.973ZM30.34,78.266a.3.3,0,0,1,.412.252l.1,1.278-.863,1.777L29.06,78.8Zm-7.4-1.522a1.091,1.091,0,1,1,1.091,1.093A1.093,1.093,0,0,1,22.937,76.744Zm2.772,1.522a2.281,2.281,0,0,0,.368-.551l1.761,1.137,5.487,16.355-.819.269L27.11,79.395a.588.588,0,0,0-.219-.294ZM20.582,83.91a4.3,4.3,0,0,1,4.341-1.047l2.135.661a.583.583,0,0,0,.206.025l1.522,4.536L24.4,87.73A.589.589,0,0,0,24.3,88.9l1.7.138-1.367,2.793L20.37,88.9l.246-.213a.586.586,0,0,0,.072-.075l1.049.085.048,0a.589.589,0,0,0,.047-1.176l-1.624-.131a3.147,3.147,0,0,0-1.044-2.075ZM15.668,96.25l-7.257.328-.219-1.5,7.047-1.77a1.485,1.485,0,0,1,1.657,1.26A1.489,1.489,0,0,1,15.668,96.25ZM8.736,93.726l-1.346.338a.589.589,0,0,0-.439.657l.373,2.555a.588.588,0,0,0,.581.5h.027l3.159-.143a2.925,2.925,0,1,1-2.086-4.978l.094,0Zm10.542-5.468.012.019-2.8,2.425a13.067,13.067,0,0,1-2.11-2.4l-.027-.04h4.928Zm-5.6,1.09a14.251,14.251,0,0,0,1.911,2.13l-.684.592a.588.588,0,0,0-.106.122,6.717,6.717,0,0,0-1.489-1.766ZM12.9,91.639a5.53,5.53,0,0,1,.712.863l-1.1.277ZM18.058,94.4a2.668,2.668,0,0,0-1.632-2.085l.763-.66,5.126,3.489a6.177,6.177,0,0,1-3.717,1.3l-.962-.175a2.66,2.66,0,0,0,.422-1.867Zm5.135-.082L18.11,90.855,19.45,89.7,24.119,92.9l-.038.078A6.1,6.1,0,0,1,23.193,94.314ZM17.077,85.7a1.972,1.972,0,0,1,1.879,1.383h-5.24A1.608,1.608,0,0,1,12.128,85.7Zm-5.037,2a2.772,2.772,0,0,0,.815.428l-1.709,5-1.052.264ZM3.471,95.586a5.538,5.538,0,0,1,6.5-5.464L9.493,91.51a4.1,4.1,0,1,0-.487,8.182,4.081,4.081,0,0,0,3.588-2.123l1.61-.073A5.535,5.535,0,0,1,3.471,95.586Zm11.987,1.853.3-.013a.588.588,0,0,0,.059-.006,2.65,2.65,0,0,0,.678-.195.589.589,0,0,0,.164.056l1.789.326a.59.59,0,0,0,.105.009A7.337,7.337,0,0,0,25.135,93.5l2.132-4.357,1.9.154h.022l.3.884a6.731,6.731,0,0,0,.038,11.456h-17.6a6.72,6.72,0,0,0,3.527-4.2Z" transform="translate(0 -74.473)"/></svg>