<svg xmlns="http://www.w3.org/2000/svg" width="71.643" height="78.5" viewBox="0 0 71.643 78.5"><defs><style>.a{fill:#e6ffff;}.b{fill:#ffdf8e;}.c{fill:#4a696f;}</style></defs><path class="a" d="M167.2,10c13.888,0,25.187,12.38,25.187,27.6s-11.3,27.6-25.187,27.6c-13.949,0-25.187-12.448-25.187-27.6C142.009,22.38,153.308,10,167.2,10Z" transform="translate(-122.138 -8.467)"/><path class="b" d="M151.569,300.745l-4.833,5.3-5.937-6.505,4.833-5.3A26.738,26.738,0,0,0,151.569,300.745Z" transform="translate(-121.098 -249.128)"/><path class="c" d="M34.247,335.3,17.176,354a3.943,3.943,0,0,1-5.937,0,4.916,4.916,0,0,1,0-6.505l17.071-18.7Z" transform="translate(-8.609 -278.381)"/><path d="M9.557,76.7,25.639,59.082l1.638,1.8a1.315,1.315,0,0,0,1.979,0,1.639,1.639,0,0,0,0-2.168l-1.639-1.8L30.643,53.6a25.258,25.258,0,0,0,7.819,3.755,1.394,1.394,0,0,0,1.7-1.1,1.55,1.55,0,0,0-1.008-1.866C28.882,51.5,21.27,41.268,21.27,29.13c0-14.372,10.671-26.064,23.787-26.064S68.845,14.759,68.845,29.13c0,11.912-7.355,22.3-17.887,25.252a1.55,1.55,0,0,0-1.008,1.866,1.394,1.394,0,0,0,1.7,1.1C62.9,54.2,71.644,42.96,71.644,29.13,71.644,13.068,59.717,0,45.058,0S18.472,13.068,18.472,29.13a30.93,30.93,0,0,0,4.256,15.794L19.7,48.241l-1.64-1.8a1.315,1.315,0,0,0-1.979,0,1.639,1.639,0,0,0,0,2.168l1.64,1.8L1.642,68.028a6.551,6.551,0,0,0,0,8.673,5.255,5.255,0,0,0,7.916,0ZM24.391,47.438a28.084,28.084,0,0,0,3.958,4.337l-2.711,2.971-3.958-4.337ZM3.62,70.2,19.7,52.577l3.958,4.337L7.578,74.533a2.627,2.627,0,0,1-3.958,0,3.275,3.275,0,0,1,0-4.337Z" transform="translate(-0.001)"/><ellipse cx="1" cy="2" rx="1" ry="2" transform="translate(44 55)"/></svg>