<svg xmlns="http://www.w3.org/2000/svg" width="37.317" height="38.905" viewBox="0 0 37.317 38.905"><defs><style>.a{fill:#f2171c;}.b{fill:#bf8104;}.c{fill:#f8b40e;}.d{fill:#2c4046;}.e{fill:#dd9b0a;}.f{fill:#9aa7b8;}.g{fill:#a0d9f2;}.h{fill:#444d56;}.i{fill:#e6e6e6;}</style></defs><g transform="translate(0 -10.668)"><path class="a" d="M442.358,264.579V259.1h-3.08v2.413" transform="translate(-407.261 -228.73)"/><path class="b" d="M226.574,251.618a4.638,4.638,0,0,1,0,9.244l2.97,1.733,9.984-1.155-3.186-11.093-9.24.116" transform="translate(-210.06 -220.674)"/><g transform="translate(7.588 18.696)"><path class="c" d="M125.975,111.91h3.745a2.946,2.946,0,0,1,2.815,3.062h0a2.946,2.946,0,0,1-2.815,3.062h-3.745Z" transform="translate(-124.382 -111.91)"/><path class="c" d="M109.565,202.448l-3.616-1.867-1.834-.947,3.93-10.49h2.231S106.452,195.949,109.565,202.448Z" transform="translate(-104.115 -183.02)"/><path class="c" d="M161.459,385.732H146.377v-2.773h11.758" transform="translate(-143.297 -361.467)"/></g><ellipse class="d" cx="5.523" cy="6.009" rx="5.523" ry="6.009" transform="translate(24.37 36.953)"/><path class="e" d="M108.919,189.146l-2.97,11.437-1.834-.947,3.93-10.49Z" transform="translate(-96.527 -164.326)"/><ellipse class="f" cx="3.022" cy="3.288" rx="3.022" ry="3.288" transform="translate(26.871 39.673)"/><ellipse class="d" cx="5.523" cy="6.009" rx="5.523" ry="6.009" transform="translate(2.066 36.953)"/><ellipse class="f" cx="3.022" cy="3.288" rx="3.022" ry="3.288" transform="translate(4.567 39.673)"/><path class="c" d="M303.46,285.5a6.149,6.149,0,0,1-2.931-5.34,5.833,5.833,0,0,1,5.575-6.065c3.084,0,9.282,1.841,9.282,11.405Z" transform="translate(-278.625 -242.538)"/><path class="e" d="M302.337,281.083a5.833,5.833,0,0,1,5.575-6.065,9.291,9.291,0,0,1,3.2.594,9.206,9.206,0,0,0-5.009-1.518,5.833,5.833,0,0,0-5.575,6.065,6.15,6.15,0,0,0,2.93,5.34h.628A6.306,6.306,0,0,1,302.337,281.083Z" transform="translate(-278.627 -242.537)"/><path class="c" d="M21.691,329.092c0-4.225-3.149-7.651-7.033-7.651s-7.033,3.425-7.033,7.651Z" transform="translate(-7.069 -286.131)"/><path class="e" d="M15.826,321.546a6.528,6.528,0,0,0-1.168-.106c-3.884,0-7.033,3.425-7.033,7.651H9.961A7.494,7.494,0,0,1,15.826,321.546Z" transform="translate(-7.069 -286.13)"/><rect class="g" width="1.699" height="6.124" transform="translate(9.182 18.696)"/><g transform="translate(12.475 19.981)"><path class="h" d="M224.968,223.372l-10.808.83a2.5,2.5,0,0,0-2.206,2.575h15.052v-1.339A1.979,1.979,0,0,0,224.968,223.372Z" transform="translate(-208.98 -215.815)"/><ellipse class="h" cx="1.633" cy="1.777" rx="1.633" ry="1.777"/></g><path class="i" d="M180.724,23.919h0a1.056,1.056,0,0,1-1.009-1.1V19.39a1.056,1.056,0,0,1,1.009-1.1h0a1.056,1.056,0,0,1,1.009,1.1v3.431A1.056,1.056,0,0,1,180.724,23.919Z" transform="translate(-166.616 -7.019)"/><path d="M35.653,35.661V30.366a.582.582,0,0,0-.556-.6h-3.08a.582.582,0,0,0-.556.6v1.457c-.262-.119-.52-.223-.773-.312a.6.6,0,0,0,.368-.568V29.6a2.8,2.8,0,0,0-.783-1.957,2.352,2.352,0,0,0-1.85-.712l-10.808.83a3.1,3.1,0,0,0-2.723,3.169.585.585,0,0,0,.556.614h1a4.029,4.029,0,0,1,.062,8.035h-2a8.43,8.43,0,0,0-1-1.773,13.013,13.013,0,0,1-.757-8.595,16.812,16.812,0,0,1,1.46-4.072,3.676,3.676,0,0,0,2.076-3.264q0-.061,0-.122t0-.122a3.733,3.733,0,0,0-1.63-3.018V17.391A1.7,1.7,0,0,0,15.672,15.8v-3.39a1.675,1.675,0,0,0-1.5-1.743,1.633,1.633,0,0,0-1.625,1.7V15.8a1.7,1.7,0,0,0,1.009,1.589v.764a3.107,3.107,0,0,0-.626-.064H9.182a.582.582,0,0,0-.556.6V24.82a.582.582,0,0,0,.556.6h1.51l-.836,2.232a.624.624,0,0,0,.3.788h0a.541.541,0,0,0,.724-.332l1.007-2.689h.935a19.046,19.046,0,0,0-1.14,3.466,15.3,15.3,0,0,0,0,7.123A7.156,7.156,0,0,0,8.4,34.752l1.569-4.188a.624.624,0,0,0-.3-.788h0a.541.541,0,0,0-.724.332L7.211,34.715C3.2,34.93,0,38.549,0,42.965a.58.58,0,0,0,.556.6h.981a6.312,6.312,0,0,0,6.052,6.008,6.312,6.312,0,0,0,6.052-6.008h6.611a.582.582,0,0,0,.556-.6h0a.582.582,0,0,0-.556-.6h-5.1a8.866,8.866,0,0,0-.246-1.564h7.173a6.637,6.637,0,0,0,1.076,1.564h-.315a.582.582,0,0,0-.556.6h0a.582.582,0,0,0,.556.6h1a6.312,6.312,0,0,0,6.052,6.008,6.312,6.312,0,0,0,6.052-6.008h.816a.584.584,0,0,0,.556-.608A14.511,14.511,0,0,0,35.653,35.661Zm-22-23.291a.455.455,0,1,1,.907,0V15.8a.455.455,0,1,1-.907,0Zm.453,8.215a1.176,1.176,0,1,1-1.078,1.172A1.129,1.129,0,0,1,14.108,20.586ZM9.737,19.3h.588v4.915H9.737Zm1.781,4.915h-.082V19.3h1.489a2.084,2.084,0,0,1,.626.1v.057a2.436,2.436,0,0,0,.1,4.632,2.086,2.086,0,0,1-.721.129H11.518Zm-3.93,11.7a6.731,6.731,0,0,1,6.453,6.442H1.135A6.731,6.731,0,0,1,7.589,35.914Zm2.4,7.651a2.525,2.525,0,0,1-2.4,2.078,2.525,2.525,0,0,1-2.4-2.078Zm-2.4,4.8a5.147,5.147,0,0,1-4.935-4.8h1.4a3.691,3.691,0,0,0,3.535,3.287,3.691,3.691,0,0,0,3.535-3.287h1.4A5.147,5.147,0,0,1,7.588,48.364ZM32.573,30.971h1.969v3.135a9.187,9.187,0,0,0-.921-.909,9.039,9.039,0,0,0-1.048-.773V30.971Zm-16.481-.632a1.862,1.862,0,0,1,1.6-1.368l10.808-.83a1.272,1.272,0,0,1,1.014.39,1.514,1.514,0,0,1,.429,1.073v.735H16.091Zm3.492,9.244a5.518,5.518,0,0,0,0-8.035h5.365a6.729,6.729,0,0,0-3.6,6.072,7.227,7.227,0,0,0,.271,1.962H19.583Zm10.31,8.781a5.147,5.147,0,0,1-4.935-4.8h1.4a3.544,3.544,0,0,0,7.069,0h1.4A5.148,5.148,0,0,1,29.893,48.365Zm-2.4-4.8h4.8a2.428,2.428,0,0,1-4.8,0Zm-2.512-1.209a5.552,5.552,0,0,1-2.519-4.735,5.26,5.26,0,0,1,5.019-5.461,8.553,8.553,0,0,1,5.454,1.987c2.06,1.763,3.157,4.523,3.264,8.209H24.979Z" transform="translate(0 0)"/><path d="M370.111,319.64h-5.417a.607.607,0,0,0,0,1.209h5.417a.607.607,0,0,0,0-1.209Z" transform="translate(-337.598 -284.473)"/><path d="M368.694,344.238h-4a.607.607,0,0,0,0,1.209h4a.607.607,0,0,0,0-1.209Z" transform="translate(-337.598 -307.121)"/><path d="M367.279,368.528h-2.584a.607.607,0,0,0,0,1.209h2.584a.607.607,0,0,0,0-1.209Z" transform="translate(-337.599 -329.485)"/></g></svg>