<svg xmlns="http://www.w3.org/2000/svg" width="45.926" height="40.954" viewBox="0 0 45.926 40.954"><defs><style>.a{fill:#838383;}.a,.b,.c,.d,.e,.f,.g,.h{fill-rule:evenodd;}.b{fill:#ececec;}.c{fill:#cecece;}.d{fill:#fe636e;}.e{fill:#fb2a39;}.f{fill:#595959;}.g{fill:#ffbf00;}.h{fill:#ffd659;}</style></defs><g transform="translate(0.002 -49.977)"><g transform="translate(0.676 50.729)"><path class="a" d="M20.659,340.394l-5.1,2.116a7.818,7.818,0,0,0-.291,2.121c0,3.921,2.872,7.1,6.414,7.1a6.673,6.673,0,0,0,6.356-6.144Z" transform="translate(-14.58 -312.28)"/><path class="a" d="M350.132,352.291h-.087a7.736,7.736,0,0,0-.173,1.645c0,3.921,2.872,7.1,6.414,7.1s6.414-3.179,6.414-7.1a7.9,7.9,0,0,0-.173-1.645l-5.737-1.566Z" transform="translate(-319.167 -321.584)"/><path class="b" d="M161.248,244.608l-5.785,6.926c.229.587.668,2.3-.013,2.288l-.4-.006a.011.011,0,0,1,0,.008l4.692,1.7c6.835-.336,4.475-.172,9.485-5.36l.816-5.555-4.322-2.7Z" transform="translate(-141.824 -223.58)"/><path class="c" d="M213.785,269.1h-8.8l-1.883,2.251h5.415c1.419,0,1.369-.071.558,1.444l-1.417,2.342a2.018,2.018,0,0,1,1.249,1.379l3.122-4.742Z" transform="translate(-185.559 -248.069)"/><path class="d" d="M14.822,294.388c-3.175-.147-6.4,1.5-7.105,4.4-.224.922-.405,2.35.821,2.277H13.55l1.549-2.277Z" transform="translate(-7.555 -270.839)"/><path class="d" d="M111.106,305.622a6.54,6.54,0,0,0-3.344-3.659l-1.432,2.973.212,2.962h3.815l.344.006.4.006C111.776,307.918,111.338,306.209,111.106,305.622Z" transform="translate(-97.47 -277.669)"/><path class="a" d="M227.136,328.813a1.878,1.878,0,0,0-1.409.655,2.289,2.289,0,0,0-.563,1.394,2.367,2.367,0,0,0,.26,1.233h1.369a1.512,1.512,0,0,0,1.58-.863l.614-.937a1.947,1.947,0,0,0-1.85-1.481Z" transform="translate(-205.64 -301.85)"/><path class="d" d="M380.948,181.449H378.57a2.612,2.612,0,0,0-1.86.8l-1.211,2.542,1.211,1.983a2.613,2.613,0,0,0,1.86.8h2.378a.9.9,0,0,0,.849-.939v-4.249A.9.9,0,0,0,380.948,181.449Z" transform="translate(-342.495 -169.133)"/><path class="d" d="M343.3,308.507l-.632-1.461-.1-.229a6.629,6.629,0,0,0-2.788,3.555c-.3.92-.535,2.319.872,2.375h4.485l-.42-.97Z" transform="translate(-309.775 -282.041)"/><path class="d" d="M408.537,298.1a7.771,7.771,0,0,0-8.576-3.428l.15.358.53,1.253,1.445,3.419.805,1.9h5.232a1.828,1.828,0,0,0,.413-.042c1.053-.251.869-1.509.545-2.333A8.3,8.3,0,0,0,408.537,298.1Z" transform="translate(-364.763 -270.897)"/><path class="d" d="M313.261,58.249l-3.392-.7c-.431-.087-.8.4-.8.883V60.41a.842.842,0,0,0,.8.88h3.392a.844.844,0,0,0,.8-.88V59.13A.912.912,0,0,0,313.261,58.249Z" transform="translate(-282.028 -57.539)"/><path class="a" d="M26.83,199.553H16.111c-1.1-.062-1.552-1.664-2.633-1.67l-1.223.006a1.684,1.684,0,0,0-1.927,1.876v3.145a1.963,1.963,0,0,0,2.115,2.051H29.5l2.378-2.7L29.5,199.553Z" transform="translate(-10.08 -183.934)"/><path class="e" d="M14.83,294.388c-3.175-.147-6.4,1.5-7.105,4.4-.186.767-.341,1.884.316,2.195a6.825,6.825,0,0,1,6.132-4.2c.069,0,.135,0,.2.006l.132-.7Z" transform="translate(-7.563 -270.839)"/><path class="e" d="M120.379,305.519a6.536,6.536,0,0,0-3.305-3.554l-.347,1.687-.168.824a7.331,7.331,0,0,1,3,3.425h.107l.344.006.4.006c.68.008.242-1.7.01-2.288C120.4,305.586,120.392,305.552,120.379,305.519Z" transform="translate(-106.781 -277.67)"/><path class="e" d="M408.537,298.094a7.282,7.282,0,0,0-3.9-3.194,8.37,8.37,0,0,0-4.671-.234l.15.358.041.093a7.888,7.888,0,0,1,4.48,1.47,7.246,7.246,0,0,1,1.967,2.181,8.138,8.138,0,0,1,.545,1.131,2.674,2.674,0,0,1,.173,1.7h.805a1.826,1.826,0,0,0,.413-.042c1.053-.251.869-1.509.545-2.333a8.293,8.293,0,0,0-.546-1.131Z" transform="translate(-364.763 -270.894)"/><path class="e" d="M357.082,306.817A6.936,6.936,0,0,0,355.5,308.2l.433,1,1.414,3.267.125.285h2.181l-.42-.97-1.417-3.27-.632-1.461Z" transform="translate(-324.287 -282.041)"/><path class="e" d="M420.88,181.449h-1.514a.9.9,0,0,1,.849.939v4.249a.9.9,0,0,1-.849.939h1.514a.9.9,0,0,0,.849-.939v-4.249A.9.9,0,0,0,420.88,181.449Z" transform="translate(-382.427 -169.133)"/><path class="f" d="M199.832,214.686h2.176v5.408h-2.176Z" transform="translate(-182.585 -199.067)"/><path class="b" d="M387.817,368.33l-.737-1.7-.066-.155H385.92a3.863,3.863,0,0,0-.364,1.645,3.229,3.229,0,1,0,6.425,0,3.862,3.862,0,0,0-.362-1.645h-1.84l.064.155.138.327C390.775,368.841,388.4,369.676,387.817,368.33Z" transform="translate(-351.65 -335.771)"/><path class="f" d="M415.8,366.478h-1.366a7.732,7.732,0,0,1,.173,1.645,6.934,6.934,0,0,1-5.329,7,5.754,5.754,0,0,0,1.086.1c3.542,0,6.414-3.179,6.414-7.1a7.9,7.9,0,0,0-.173-1.645Z" transform="translate(-373.247 -335.772)"/><path class="e" d="M342.481,63.773a.912.912,0,0,0-.8-.88l-.958-.2a.982.982,0,0,1,.367.793v1.447a.918.918,0,0,1-.8,1h1.386a.844.844,0,0,0,.8-.88Z" transform="translate(-310.45 -62.183)"/><path class="f" d="M82.716,392.647l-2.031,0a6.814,6.814,0,0,1-5.352,6.051,5.882,5.882,0,0,0,1.027.09A6.673,6.673,0,0,0,82.716,392.647Z" transform="translate(-69.253 -359.34)"/><path class="b" d="M53.059,361.681H51.592a3.8,3.8,0,0,0-.635,2.121,3.4,3.4,0,0,0,3.214,3.557,3.284,3.284,0,0,0,3.094-2.6Z" transform="translate(-47.064 -331.451)"/><path class="g" d="M103.8,278.313H93.091l-1.409,1.058-.125,2.011,2.666,0,3.262,0,8.94-.006a2.607,2.607,0,0,0,2.327-1.552l6.84-9.9V269.1h-3.344l-1.758,2.674-3.122,4.742-.614.937a1.512,1.512,0,0,1-1.58.863H103.8Z" transform="translate(-84.022 -248.07)"/><path class="d" d="M236.241,190.745c0-4.037-10.033-4.556-12.146-.6v5.408h12.146l1.134-2.584Z" transform="translate(-204.672 -174.522)"/><path class="e" d="M248.06,190.747c0-3.521-7.628-4.364-10.981-1.9,3.688-1.013,8.729.079,8.729,2.942v3.766h2.253v-4.8Z" transform="translate(-216.491 -174.524)"/><path class="h" d="M313.421,132.449l-4.465-.017c-1.753-.008-1.764,2.719-.023,2.832l3.354.217v11.456l1.325,3.055.632,1.461,1.417,3.27.487,1.126.737,1.7c.584,1.346,2.959.511,2.164-1.371l-.138-.327-.869-2.059-1.445-3.419-.53-1.253-1.134-2.688V134.212a1.726,1.726,0,0,0-.176-.79A1.471,1.471,0,0,0,313.421,132.449Z" transform="translate(-280.718 -124.988)"/><path class="g" d="M361.274,133.55a1.47,1.47,0,0,0-1.335-.973l-1.2,0a1.467,1.467,0,0,1,1.328.97,1.733,1.733,0,0,1,.176.79v12.218l1.126,2.669.01.02.528,1.253,1.445,3.419.808,1.91.064.152.135.324a1.368,1.368,0,0,1-.527,1.879,1.327,1.327,0,0,0,1.738-1.873l-.138-.327-.064-.155-.805-1.9-1.445-3.419-.489-1.159-.041-.093-.15-.358-.984-2.33V134.34A1.723,1.723,0,0,0,361.274,133.55Z" transform="translate(-327.236 -125.116)"/><path class="h" d="M72,279.257c-.24,1.549.805,2.288,1.725,2.073a1.582,1.582,0,0,0,1.114-1.086,2.6,2.6,0,0,0,.1-.409q1.1-5.366,2.21-10.74H73.934Q72.967,274.177,72,279.257Z" transform="translate(-66.185 -248.068)"/><path class="g" d="M87.642,269.1H84.426q-.47,2.463-.938,4.926a6.3,6.3,0,0,1,2.966.852Q87.047,271.983,87.642,269.1Z" transform="translate(-76.677 -248.069)"/></g><path d="M45.618,78.762a7.978,7.978,0,0,0-4.212-4.48,8.87,8.87,0,0,0-5.137-.62L35.569,72V69.689a3.128,3.128,0,0,0,1.183.234h2.378a1.617,1.617,0,0,0,1.526-1.691V63.984a1.617,1.617,0,0,0-1.526-1.691H36.751a3.13,3.13,0,0,0-1.183.234V59.953a2.536,2.536,0,0,0-.247-1.125,2.2,2.2,0,0,0-1.477-1.33l-1.034-2.609a1.693,1.693,0,0,0,.573-1.288V52.319A1.632,1.632,0,0,0,32.033,50.7L28.641,50h0a1.174,1.174,0,0,0-1.047.317,1.8,1.8,0,0,0-.549,1.305V53.6a1.56,1.56,0,0,0,1.473,1.631h2.949l.873,2.2-3.422-.013h-.011a2.006,2.006,0,0,0-1.99,2.061,2.1,2.1,0,0,0,1.936,2.272l2.715.176v2.414a6.233,6.233,0,0,0-2.051-1.019c-3.341-1.014-8.023-.305-9.774,2.272h-5.3a.755.755,0,0,0,0,1.5h4.98V71H3.04a1.262,1.262,0,0,1-1.437-1.3V66.56a1.191,1.191,0,0,1,.255-.843,1.2,1.2,0,0,1,.953-.283h.044l1.217-.006c.262,0,.5.235.856.617A2.673,2.673,0,0,0,6.673,67.1h4.816a.755.755,0,0,0,0-1.5H6.728c-.266-.022-.505-.257-.864-.637a2.535,2.535,0,0,0-1.792-1.033l-1.2.006a2.425,2.425,0,0,0-1.941.69A2.691,2.691,0,0,0,.247,66.56v3.145a2.677,2.677,0,0,0,2.793,2.8H7.589L7.4,73.521c-3.086.06-6.42,1.716-7.212,4.966a3.178,3.178,0,0,0,.174,2.641,1.4,1.4,0,0,0,.47.411A8.718,8.718,0,0,0,.69,83.08c0,4.329,3.182,7.852,7.092,7.852A7.321,7.321,0,0,0,14.7,84.785l3.066,0a.755.755,0,0,0,0-1.5h0l-7.852.009a3.216,3.216,0,0,0,.178-.64l.19-.925H21.827a2.146,2.146,0,0,0,2.128-1.172L27.7,74.865l.011-.016,1.54-2.341h2.192l-6.571,9.515-.024.036c-.744,1.221-1.486,1.221-1.765,1.221H20.433a.755.755,0,0,0,0,1.5h2.645a3.352,3.352,0,0,0,2.877-1.863l6.129-8.875.514,1.186A7.3,7.3,0,0,0,30.045,78.8a3.087,3.087,0,0,0,.03,2.616,1.565,1.565,0,0,0,.693.6A8.772,8.772,0,0,0,30.7,83.08c0,4.329,3.182,7.852,7.092,7.852s7.092-3.522,7.092-7.852a8.712,8.712,0,0,0-.062-1.028,1.6,1.6,0,0,0,.822-.69A3.184,3.184,0,0,0,45.618,78.762ZM35.569,64.206a1.938,1.938,0,0,1,1.183-.41h2.378a.183.183,0,0,1,.171.188v4.249a.183.183,0,0,1-.171.188H36.751a1.939,1.939,0,0,1-1.183-.41ZM32.029,53.6a.126.126,0,0,1-.12.129H28.517A.125.125,0,0,1,28.4,53.6V51.622a.251.251,0,0,1,.046-.134l3.341.689c.136.028.242.1.242.141ZM1.655,80.208H1.622a.365.365,0,0,1-.21-.026c-.039-.043-.141-.392.081-1.3.52-2.131,2.862-3.695,5.615-3.845l-.986,5.175H1.655Zm5.856,4.533c.06.012.121.021.182.027a.616.616,0,0,0,.173.026h0l1.922,0a2.465,2.465,0,0,1-2.006,1.1A2.684,2.684,0,0,1,5.247,83.08a3.014,3.014,0,0,1,.325-1.37h.263l-.01.053,0,.028a2.4,2.4,0,0,0,1.692,2.951Zm3.842.048,1.955,0A5.881,5.881,0,0,1,7.783,89.43c-3.163,0-5.737-2.848-5.737-6.35a7.045,7.045,0,0,1,.134-1.37H4.092a4.716,4.716,0,0,0-.2,1.37,4.121,4.121,0,0,0,3.891,4.308,3.914,3.914,0,0,0,3.571-2.6ZM10.3,74.881,9.086,80.8l0,.013-.312,1.518c0,.01,0,.021-.006.031-.14.843-.7.963-1.015.9-.177-.035-.743-.225-.6-1.2l.177-.929c0-.011,0-.023.007-.034l1.637-8.588h1.817l-.481,2.339c0,.012-.005.023-.007.035Zm3.269,5.326H10.6l.839-4.077a5.835,5.835,0,0,1,2.25,2.841l0,.011a5.114,5.114,0,0,1,.293,1.23Zm-1.822-5.6.432-2.1h6.366l-4.075,4.877A7.181,7.181,0,0,0,11.75,74.606Zm3.343,4.246,5.3-6.346h7.173L26.8,73.679h-4.13a.755.755,0,0,0,0,1.5H25.81l-1.743,2.651a2.468,2.468,0,0,0-3.787-.013,3.084,3.084,0,0,0-.757,1.874,3.277,3.277,0,0,0,.014.529h-4.2A5.607,5.607,0,0,0,15.093,78.853Zm6.734,1.369H20.91a1.6,1.6,0,0,1-.035-.435,1.5,1.5,0,0,1,.371-.915,1.213,1.213,0,0,1,2,.214l-.383.582C22.537,80.159,22.458,80.222,21.827,80.222Zm9.74-9.217H20.777V66.568c1.3-2.064,5.5-2.669,8.381-1.794.724.22,2.409.872,2.409,2.178v4.053Zm.717-10.532-3.354-.217a.667.667,0,0,1-.66-.725.579.579,0,0,1,.636-.606h.005l4.464.017a.788.788,0,0,1,.717.522c.009.024.02.047.031.07a.918.918,0,0,1,.088.42V72.171a.819.819,0,0,0,.064.318l.971,2.3q.013.034.028.066l3.117,7.381c.18.425.113.713-.2.879-.22.115-.606.147-.735-.152L32.923,72.508V61.222a.723.723,0,0,0-.638-.75ZM39.8,82.186h.4a3.073,3.073,0,0,1,.131.894,2.548,2.548,0,1,1-5.069,0,3.048,3.048,0,0,1,.133-.894h.22l.619,1.428a1.723,1.723,0,0,0,1.62,1.087,1.985,1.985,0,0,0,.918-.228A2.074,2.074,0,0,0,39.8,82.186Zm-8.616-1.629c-.066-.1-.112-.484.135-1.241A5.81,5.81,0,0,1,33.194,76.6l1.768,4.081H31.641C31.41,80.684,31.235,80.635,31.186,80.557ZM37.8,89.43c-3.163,0-5.737-2.848-5.737-6.35a7.1,7.1,0,0,1,.056-.894H33.99a4.747,4.747,0,0,0-.086.894A4.121,4.121,0,0,0,37.8,87.388a4.12,4.12,0,0,0,3.889-4.308,4.78,4.78,0,0,0-.085-.894h1.873a7.077,7.077,0,0,1,.059.894c0,3.5-2.573,6.35-5.737,6.35Zm6.719-8.892c-.054.092-.233.146-.478.146h-4.8l-2.364-5.6a6.888,6.888,0,0,1,7.5,4.273A1.722,1.722,0,0,1,44.515,80.538Z" transform="translate(0)"/></g></svg>