<svg xmlns="http://www.w3.org/2000/svg" width="39.191" height="39.191" viewBox="0 0 39.191 39.191">
  <g id="Grupo_1495" data-name="Grupo 1495" transform="translate(0 0)">
    <g id="money-transfer" transform="translate(0 0)">
      <path id="Trazado_1764" data-name="Trazado 1764" d="M10.678,0A10.678,10.678,0,1,1,0,10.678,10.678,10.678,0,0,1,10.678,0Z" transform="translate(8.729 8.918)" fill="#ccc"/>
      <path id="Trazado_1751" data-name="Trazado 1751" d="M244.059,116.5q-.4,0-.786.029a10.678,10.678,0,0,1,0,21.3q.389.028.786.029a10.678,10.678,0,0,0,0-21.356Z" transform="translate(-224.652 -107.582)" fill="#9f9f9f"/>
      <path id="Trazado_1752" data-name="Trazado 1752" d="M308.669,14.776l3.6-3.637-3.6-3.637v1.6a.379.379,0,0,1-.379.379H296.332v3.31H308.29a.379.379,0,0,1,.379.379Z" transform="translate(-273.649 -6.929)" fill="#ff9f32"/>
      <path id="Trazado_1753" data-name="Trazado 1753" d="M461.016,11.139l-3.6-3.637V9.1a.376.376,0,0,1-.007.066l1.532,1.548a.6.6,0,0,1,0,.839l-1.532,1.548a.376.376,0,0,1,.007.066v1.6Z" transform="translate(-422.398 -6.928)" fill="#c96b00"/>
      <path id="Trazado_1754" data-name="Trazado 1754" d="M11.1,409.481l-3.6,3.637,3.6,3.637v-1.6a.379.379,0,0,1,.379-.379H23.435v-3.31H11.478a.379.379,0,0,1-.379-.379Z" transform="translate(-6.927 -378.137)" fill="#ff9f32"/>
      <path id="Trazado_1755" data-name="Trazado 1755" d="M7.5,413.117l3.6,3.637v-1.6a.378.378,0,0,1,.007-.066l-1.532-1.548a.6.6,0,0,1,0-.839l1.532-1.548a.378.378,0,0,1-.007-.066v-1.6Z" transform="translate(-6.927 -378.136)" fill="#c96b00"/>
      <g id="Grupo_1494" data-name="Grupo 1494" transform="translate(0 0)">
        <path id="Trazado_1756" data-name="Trazado 1756" d="M151.724,162.621a8.44,8.44,0,1,0-8.44-8.44A8.449,8.449,0,0,0,151.724,162.621Zm0-15.732a7.292,7.292,0,1,1-7.292,7.292A7.3,7.3,0,0,1,151.724,146.889Z" transform="translate(-132.316 -134.585)"/>
        <path id="Trazado_1758" data-name="Trazado 1758" d="M366.146,90.746a.574.574,0,1,0-.9.717l.576.721h-3.651a.574.574,0,1,0,0,1.148h3.651l-.576.721a.574.574,0,1,0,.9.717l1.321-1.653a.574.574,0,0,0,0-.717Z" transform="translate(-333.921 -83.601)"/>
        <path id="Trazado_1759" data-name="Trazado 1759" d="M73.56,367.517a.574.574,0,0,0,.9-.717l-.576-.721h3.651a.574.574,0,0,0,0-1.148H73.882l.576-.721a.574.574,0,1,0-.9-.717l-1.321,1.653a.574.574,0,0,0,0,.717Z" transform="translate(-66.594 -335.472)"/>
        <path id="Trazado_1760" data-name="Trazado 1760" d="M4.552,405.108H16.509a.574.574,0,1,0,0-1.148H4.747v-1.408a.574.574,0,0,0-.982-.4l-3.6,3.637a.574.574,0,0,0,0,.807l3.6,3.637a.574.574,0,0,0,.982-.4v-1.408H16.509a.574.574,0,0,0,0-1.148H4.552a.954.954,0,0,0-.953.953v.206l-2.216-2.24,2.216-2.24v.206a.954.954,0,0,0,.953.953Z" transform="translate(-0.001 -371.209)"/>
        <path id="Trazado_1761" data-name="Trazado 1761" d="M117.8,109a11.253,11.253,0,0,0-9.315,17.565.574.574,0,0,0,.95-.645,10.113,10.113,0,1,1,1.411,1.662.574.574,0,0,0-.79.833A11.252,11.252,0,1,0,117.8,109Z" transform="translate(-98.388 -100.657)"/>
        <path id="Trazado_1762" data-name="Trazado 1762" d="M305.748,3.807,302.15.17a.574.574,0,0,0-.982.4V1.982H298.52a.574.574,0,0,0,0,1.148h2.843a.954.954,0,0,0,.953-.953V1.971l2.216,2.24-2.216,2.24V6.245a.954.954,0,0,0-.953-.953H289.405a.574.574,0,1,0,0,1.148h11.762V7.848a.574.574,0,0,0,.982.4l3.6-3.637a.574.574,0,0,0,0-.808Z" transform="translate(-266.722 0)"/>
        <path id="Trazado_1763" data-name="Trazado 1763" d="M289.405,27.038h6.82a.574.574,0,1,0,0-1.148h-6.82a.574.574,0,1,0,0,1.148Z" transform="translate(-266.722 -23.908)"/>
      </g>
    </g>
    <g id="Elipse_1400" data-name="Elipse 1400" transform="translate(11.482 11.648)" fill="#ffd607" stroke="#000" stroke-width="0.4">
      <circle cx="8" cy="8" r="8" stroke="none"/>
      <circle cx="8" cy="8" r="7.8" fill="none"/>
    </g>
    <text id="S_." data-name="S/." transform="translate(14.482 22.648)" font-size="8" font-family="Heebo-Black, Heebo" font-weight="800"><tspan x="0" y="0">S/.</tspan></text>
  </g>
</svg>
